PathFileType	4	(X/Y/Z)	C:\Users\Basilio\Documents\Thesis Gigler\squatting_fais\c3dfiles\058\SJ_pre5\markers_experimental.trc
DataRate	CameraRate	NumFrames	NumMarkers	Units	OrigDataRate	OrigDataStartFrame	OrigNumFrames
200.000000	200.000000	4	61	mm	200.000000	1080	1235
Frame#	Time	FHD			LBHD			RBHD			C7			T10			CLAV			LSHO			LUUPA			LMUPA			LDUPA			LLEP			LMEP			LRAD			LUL			LRFIN			RSHO			RUPA1			RMUPA			RDUPA			RLEP			RMEP			RRAD			RUL			RUFIN			LASI			RASI			USACR			LSACR			RSACR			LTHI1			LTHI2			LTHI3			LTHI4			LLFC			LMFC			LTIB1			LTIB2			LTIB3			LTIB4			LLMAL			LMMAL			LHEE			LMT1			LMT2			LMT5			RTHI			RTHI2			RTHI3			RTHI4			RLFC			RMFC			RTIB1			RTIB2			RTIB3			RTIB4			RLMAL			RMMAL			RHEE			RMT1			RMT2			RMT5			
		X1	Y1	Z1	X2	Y2	Z2	X3	Y3	Z3	X4	Y4	Z4	X5	Y5	Z5	X6	Y6	Z6	X7	Y7	Z7	X8	Y8	Z8	X9	Y9	Z9	X10	Y10	Z10	X11	Y11	Z11	X12	Y12	Z12	X13	Y13	Z13	X14	Y14	Z14	X15	Y15	Z15	X16	Y16	Z16	X17	Y17	Z17	X18	Y18	Z18	X19	Y19	Z19	X20	Y20	Z20	X21	Y21	Z21	X22	Y22	Z22	X23	Y23	Z23	X24	Y24	Z24	X25	Y25	Z25	X26	Y26	Z26	X27	Y27	Z27	X28	Y28	Z28	X29	Y29	Z29	X30	Y30	Z30	X31	Y31	Z31	X32	Y32	Z32	X33	Y33	Z33	X34	Y34	Z34	X35	Y35	Z35	X36	Y36	Z36	X37	Y37	Z37	X38	Y38	Z38	X39	Y39	Z39	X40	Y40	Z40	X41	Y41	Z41	X42	Y42	Z42	X43	Y43	Z43	X44	Y44	Z44	X45	Y45	Z45	X46	Y46	Z46	X47	Y47	Z47	X48	Y48	Z48	X49	Y49	Z49	X50	Y50	Z50	X51	Y51	Z51	X52	Y52	Z52	X53	Y53	Z53	X54	Y54	Z54	X55	Y55	Z55	X56	Y56	Z56	X57	Y57	Z57	X58	Y58	Z58	X59	Y59	Z59	X60	Y60	Z60	X61	Y61	Z61	

1081	5.4	-167.3311004638672	1779.825073242188	-820.6788330078127	-311.9300537109376	1702.89697265625	-896.549255371094	-156.4617156982422	1791.495483398438	-963.1005859375002	-319.8569641113282	1577.10986328125	-909.9065551757815	-354.0739746093751	1264.931518554688	-902.1668701171877	-161.149658203125	1516.71826171875	-896.2913208007815	-175.8103942871094	1579.795288085938	-1067.489624023438	-331.1614379882813	1468.704467773438	-1211.379272460938	-305.8479614257813	1427.171752929688	-1222.578491210938	-360.5584411621094	1411.59130859375	-1243.200439453125	-395.6578063964845	1339.049926757813	-1269.196899414063	-443.5748291015626	1335.218383789063	-1210.916748046875	-339.4758300781251	1138.010498046875	-1092.38916015625	-313.8921813964844	1090.414672851563	-1154.14208984375	-264.7587585449219	1155.91015625	-1093.179565429688	-195.8851928710938	1587.408935546875	-727.2616577148439	-341.6442871093751	1465.650268554688	-582.1018066406251	-311.7085876464844	1425.323486328125	-577.9104614257814	-358.8302307128907	1405.677368164063	-548.3875122070314	-391.957977294922	1348.103759765625	-521.4776000976564	-447.5035400390626	1326.764770507813	-589.1453247070314	-297.1700134277344	1154.420532226563	-680.1008911132814	-278.2982177734376	1109.072265625	-615.5684204101564	-224.9979095458985	1132.245971679688	-704.0850830078126	-188.6477813720703	1047.070556640625	-1022.501525878906	-182.2342376708985	1053.411987304688	-782.8076171875002	-369.7976074218751	1141.895385742188	-889.876892089844	-379.5962219238282	1110.060791015625	-916.7121582031252	-376.4451904296876	1110.40966796875	-859.5905761718752	-274.7672424316407	776.5714111328127	-1115.752075195313	-252.4714050292969	694.4674682617189	-1120.626708984375	-205.5472106933594	690.9911499023439	-1104.010131835938	-285.7551574707032	645.0304565429689	-1114.700561523438	-295.7823486328126	543.9360961914064	-1114.042236328125	-255.4814605712891	520.4828491210939	-998.0842895507815	-252.1152954101563	401.1744079589845	-1102.883666992188	-316.0571899414063	377.8045349121094	-1154.336303710938	-275.8528747558594	363.5439147949219	-1137.647338867188	-282.0487365722657	279.0126037597657	-1123.1767578125	-368.1053466796876	92.52522277832033	-1147.734375	-327.5634155273438	95.02684783935548	-1062.357788085938	-422.6228942871095	51.07418823242189	-1092.124389648438	-198.4536590576172	61.7816848754883	-1123.195434570313	-204.7730712890626	61.33434295654298	-1169.916870117188	-262.7681884765626	36.23741531372071	-1214.18994140625	-300.7455749511719	854.7993774414065	-696.3798828125001	-266.0663452148438	798.9162597656252	-687.5353393554689	-232.7947082519532	798.5865478515627	-690.1542358398439	-296.8306579589844	720.5358276367189	-699.3616333007814	-296.9445190429688	539.5411987304689	-701.0946044921876	-244.8423461914063	511.2462158203126	-823.5834960937502	-249.1356658935547	322.2495422363282	-752.8242797851564	-303.1345520019532	255.7835540771485	-685.3209228515626	-265.2194824218751	244.6042785644532	-711.4957275390626	-271.0342712402344	196.3277130126954	-740.1021728515626	-343.4432983398438	94.69744110107423	-699.3424072265626	-294.6495361328126	103.5643692016602	-780.8485107421877	-392.0439758300782	49.09616088867189	-767.7244873046876	-178.9031677246094	56.31445312500001	-714.6582031250001	-191.5791778564453	60.64096832275392	-664.2336425781251	-247.1366729736329	28.22206497192384	-622.8626708984376	
1082	5.405	-167.4017181396485	1779.834106445313	-820.8001098632815	-311.9713134765626	1702.959716796875	-896.6379394531252	-156.6036529541016	1791.489501953125	-963.2208251953127	-320.0551452636719	1577.099853515625	-909.9992675781252	-354.1852722167969	1264.929443359375	-902.2097778320315	-161.394027709961	1516.870971679688	-896.3008422851565	-176.0205230712891	1579.864624023438	-1067.525634765625	-331.2562255859376	1468.703247070313	-1211.436767578125	-306.0180664062501	1427.206665039063	-1222.740356445313	-360.5939636230469	1411.53955078125	-1243.319458007813	-395.7469787597657	1339.10107421875	-1269.345703125	-443.6059875488282	1335.281005859375	-1211.115356445313	-339.5693969726563	1137.951416015625	-1092.48583984375	-313.9682006835938	1090.450317382813	-1154.282958984375	-264.8061523437501	1155.961181640625	-1093.32666015625	-196.2078247070313	1587.506713867188	-727.4042358398439	-341.8064575195313	1465.70947265625	-582.2097778320314	-311.8777160644532	1425.329711914063	-578.0049438476564	-358.9503173828126	1405.744262695313	-548.5140991210939	-392.1629638671876	1348.157958984375	-521.5765380859376	-447.6612243652345	1326.862182617188	-589.3029785156251	-297.2768554687501	1154.437377929688	-680.2242431640626	-278.5138854980469	1109.139038085938	-615.7493286132814	-225.2016296386719	1132.263305664063	-704.1781005859376	-188.865707397461	1047.098876953125	-1022.644287109375	-182.3742828369141	1053.438598632813	-782.945739746094	-369.9934387207032	1141.829467773438	-889.9592895507815	-379.7329711914063	1110.155517578125	-916.8203125000002	-376.5321655273438	1110.4541015625	-859.730895996094	-274.8521118164063	776.6051025390627	-1115.821411132813	-252.7519989013672	694.4840087890626	-1120.68798828125	-205.6589660644532	690.9805297851564	-1103.998779296875	-285.9450378417969	645.0585937500001	-1114.703735351563	-295.9406433105469	543.9393920898439	-1114.077392578125	-255.7163696289063	520.5126953125001	-998.0329589843752	-251.236801147461	401.0633850097657	-1102.506958007813	-316.2040405273438	377.7785949707032	-1154.399291992188	-276.0953063964844	363.5444335937501	-1137.673828125	-282.1722717285157	278.9283142089844	-1123.14697265625	-368.3026428222657	92.43121337890626	-1147.698120117188	-327.6130981445313	95.0597610473633	-1062.367553710938	-422.597869873047	51.03696823120119	-1092.1396484375	-198.3714141845704	61.81812667846681	-1123.173583984375	-204.0590972900391	61.21302032470705	-1170.095458984375	-262.5728454589844	35.96470260620118	-1214.300415039063	-300.9513244628907	854.7693481445315	-696.4332275390626	-266.0971374511719	799.138366699219	-687.8314819335939	-232.8893737792969	798.5742797851565	-690.2662353515626	-297.0150756835938	720.5534057617189	-699.3995971679689	-297.0288391113282	539.5494995117189	-701.1976318359376	-245.0677795410157	511.2077636718751	-823.7239990234377	-249.3705596923829	322.2795715332032	-752.8605346679689	-303.1817321777344	255.8288879394532	-685.3424682617189	-265.3348999023438	244.573226928711	-711.4771728515626	-271.0401306152344	196.3471221923829	-740.1258544921876	-343.4866333007813	94.63527679443361	-699.3403320312501	-294.6703796386719	103.5574569702149	-780.842468261719	-392.0068969726564	49.1303062438965	-767.7262573242189	-178.970947265625	56.34462356567384	-714.6615600585939	-191.5672607421875	60.65482711791994	-664.2224121093751	-247.1974334716797	28.18404388427735	-622.8754272460939	
1083	5.41	-167.4443969726563	1779.853637695313	-820.905456542969	-312.0178833007813	1703.060302734375	-896.7771606445315	-156.599594116211	1791.463012695313	-963.3247680664065	-320.1361389160157	1577.193725585938	-910.1472778320315	-354.3025207519532	1264.957275390625	-902.2805786132815	-161.5564575195313	1516.994018554688	-896.3787841796877	-176.1471862792969	1580.002807617188	-1067.554443359375	-331.3559570312501	1468.732055664063	-1211.599243164063	-306.0701599121094	1427.207885742188	-1222.846435546875	-360.6705932617188	1411.57373046875	-1243.43505859375	-395.810760498047	1339.113403320313	-1269.50537109375	-443.6250000000001	1335.337768554688	-1211.335693359375	-339.7419433593751	1137.950317382813	-1092.544921875	-313.9895935058594	1090.51220703125	-1154.412231445313	-264.9859619140626	1155.967041015625	-1093.407470703125	-196.3140716552735	1587.650512695313	-727.4837646484376	-342.0363159179688	1465.732421875	-582.2590942382814	-312.0676879882813	1425.424682617188	-578.0820312500001	-359.2953186035157	1405.745849609375	-548.7320556640626	-392.2643127441407	1348.184936523438	-521.7235717773439	-447.8814392089845	1326.820434570313	-589.4721069335939	-297.3097229003907	1154.404418945313	-680.3375854492189	-278.5748596191407	1109.13427734375	-615.8009643554689	-225.2517395019532	1132.328125	-704.3792114257814	-188.9622344970703	1047.176025390625	-1022.716674804688	-182.5313720703125	1053.412963867188	-783.0628051757815	-370.1993103027344	1141.854736328125	-890.049011230469	-379.8693237304688	1110.19384765625	-916.922546386719	-376.7121887207032	1110.484008789063	-859.9234008789065	-275.0015869140626	776.610046386719	-1115.869018554688	-252.8382263183594	694.4673461914064	-1120.801879882813	-205.9142150878907	690.9099731445314	-1104.05810546875	-286.1236267089844	645.0925903320314	-1114.748901367188	-296.1981201171876	543.9649658203126	-1114.149536132813	-255.969955444336	520.5177612304689	-998.070251464844	-252.2410430908204	401.2269287109376	-1103.030883789063	-316.4020385742188	377.7620239257813	-1154.422729492188	-276.2064208984376	363.6118469238282	-1137.752685546875	-282.1498718261719	278.9877929687501	-1123.183471679688	-368.3087158203126	92.41658782958986	-1147.70166015625	-327.6203002929688	95.02256011962892	-1062.38916015625	-422.5921325683595	51.06431961059572	-1092.138916015625	-198.3945922851563	61.83062744140626	-1123.153442382813	-204.147445678711	61.097469329834	-1170.078002929688	-262.5910339355469	35.96398162841798	-1214.313354492188	-301.1018676757813	854.8248291015627	-696.5068359375001	-266.2160339355469	799.3455810546877	-687.9975585937501	-232.9640502929688	798.5693359375002	-690.3736572265626	-297.1911010742188	720.5439453125001	-699.4305419921876	-297.1870117187501	539.5574340820314	-701.2376098632814	-245.2079620361329	511.2513122558595	-823.7781372070315	-249.4994049072266	322.3456726074219	-752.9384155273439	-303.2378540039063	255.8496704101563	-685.3969726562501	-265.3274536132813	244.619369506836	-711.6239013671876	-271.2073974609376	196.4444427490235	-740.1444091796876	-343.4452514648438	94.68360137939455	-699.3453979492189	-294.6678771972657	103.5558242797852	-780.8589477539065	-392.0277099609376	49.11886215209962	-767.7362060546876	-178.9039611816407	56.3950653076172	-714.6658325195314	-191.6018371582032	60.62615203857423	-664.2297363281251	-247.186508178711	28.18045234680176	-622.8865966796876	
1084	5.415	-167.6013336181641	1779.84521484375	-821.1394042968752	-312.3332824707032	1703.137939453125	-896.8286743164065	-156.6244354248047	1791.473266601563	-963.4733886718752	-320.3379821777344	1577.185546875	-910.2173461914065	-354.4126892089844	1264.973266601563	-902.3215332031252	-161.784423828125	1517.081665039063	-896.4416503906252	-176.2324371337891	1580.075561523438	-1067.648681640625	-331.4915161132813	1468.721557617188	-1211.708251953125	-306.1809692382813	1427.29541015625	-1222.971801757813	-360.8485717773438	1411.594360351563	-1243.566772460938	-395.9588317871095	1339.169189453125	-1269.63427734375	-443.717010498047	1335.281982421875	-1211.50146484375	-339.7683410644532	1137.93505859375	-1092.685546875	-314.0272216796876	1090.578857421875	-1154.603637695313	-264.9165039062501	1155.98095703125	-1093.525512695313	-196.6383209228516	1587.732421875	-727.6229248046876	-342.3292236328126	1465.773193359375	-582.3640747070314	-312.1641540527344	1425.564819335938	-578.3223266601564	-359.3097229003907	1405.774047851563	-548.8610229492189	-392.3522033691407	1348.200927734375	-521.9188842773439	-448.0399475097657	1326.838500976563	-589.6517944335939	-297.4522705078126	1154.419067382813	-680.4534301757814	-278.6810302734376	1109.120361328125	-615.9279174804689	-225.3581695556641	1132.395141601563	-704.5689086914064	-189.1237487792969	1047.17919921875	-1022.797302246094	-182.7266845703125	1053.445556640625	-783.1815185546877	-370.3019104003907	1141.907348632813	-890.1550903320315	-379.9464721679688	1110.170166015625	-917.088073730469	-376.8392333984376	1110.442016601563	-860.0865478515627	-275.1481628417969	776.6380004882815	-1115.893310546875	-252.9691925048829	694.4923095703126	-1120.848510742188	-206.1679229736329	690.8787231445314	-1104.037231445313	-286.2742004394532	645.1039428710939	-1114.820556640625	-296.3748168945313	543.9638671875001	-1114.224609375	-256.2360534667969	520.5755615234376	-998.0412597656252	-251.8163146972657	401.1667785644532	-1102.909790039063	-316.4426269531251	377.8156738281251	-1154.37744140625	-276.3407897949219	363.6231079101563	-1137.765502929688	-282.2960815429688	278.9583129882813	-1123.188354492188	-368.3079223632813	92.45021057128908	-1147.695922851563	-327.6110229492188	95.02008056640626	-1062.419555664063	-422.5287475585939	50.96508407592775	-1092.163330078125	-198.4266357421876	61.7869110107422	-1123.181030273438	-204.5181121826172	61.60059738159181	-1169.936889648438	-262.5918273925782	35.93501281738282	-1214.2998046875	-301.3649597167969	854.8115234375002	-696.5582885742189	-266.2715759277344	799.429626464844	-688.0996704101564	-233.0445404052735	798.6123046875002	-690.4827270507814	-297.2958679199219	720.5356445312501	-699.4803466796876	-297.2445678710938	539.5792846679689	-701.3078613281251	-245.4513397216797	511.1708068847657	-823.9020996093752	-249.5069885253907	322.4151000976563	-752.9396972656251	-303.2825622558594	255.8695678710938	-685.4249877929689	-265.4062194824219	244.6129608154297	-711.5831909179689	-271.2249450683594	196.4354248046876	-740.1094970703126	-343.4696044921876	94.66724395751955	-699.3283081054689	-294.6543273925782	103.5588302612305	-780.8428344726565	-392.027557373047	49.124324798584	-767.7349243164064	-178.9047393798828	56.35070800781251	-714.6469726562501	-191.60693359375	60.64148330688478	-664.2326049804689	-247.1390380859376	28.2208366394043	-622.8751220703126	
